<?xml version="1.0" standalone="no"?>
<!DOCTYPE svg PUBLIC "-//W3C//DTD SVG 20010904//EN"
 "http://www.w3.org/TR/2001/REC-SVG-20010904/DTD/svg10.dtd">
<svg version="1.0" xmlns="http://www.w3.org/2000/svg"
 width="512.000000pt" height="512.000000pt" viewBox="0 0 512.000000 512.000000"
 preserveAspectRatio="xMidYMid meet">

<g transform="translate(0.000000,512.000000) scale(0.100000,-0.100000)"
fill="#8a3f58" stroke="none">
<path d="M2321 5110 c-497 -48 -990 -251 -1376 -565 -114 -92 -294 -274 -384
-387 -229 -287 -417 -675 -495 -1023 -49 -218 -60 -325 -60 -575 0 -250 11
-357 60 -575 79 -355 272 -749 509 -1040 92 -114 274 -294 387 -384 287 -229
675 -417 1023 -495 218 -49 325 -60 575 -60 250 0 357 11 575 60 261 58 603
204 828 353 389 259 688 599 893 1016 125 255 196 484 241 775 24 161 24 539
0 700 -45 291 -116 520 -241 775 -134 272 -283 480 -498 692 -211 209 -404
346 -673 478 -252 124 -486 197 -765 240 -126 19 -468 27 -599 15z m-908 -857
c263 -124 325 -464 121 -669 -163 -163 -421 -163 -586 0 -161 159 -160 428 3
587 90 87 173 119 304 116 77 -2 100 -7 158 -34z m2207 -1068 c117 -18 187
-38 265 -77 202 -101 319 -279 376 -573 30 -150 38 -396 39 -1082 l0 -623
-360 0 -360 0 0 603 c0 624 -7 775 -40 888 -55 184 -196 267 -409 240 -135
-17 -238 -86 -291 -195 -62 -128 -63 -134 -67 -868 l-4 -668 -360 0 -359 0 0
1155 0 1155 345 0 345 0 0 -155 c0 -97 4 -155 10 -155 6 0 10 3 10 8 0 19 94
129 151 178 179 152 430 212 709 169z m-2020 -1200 l0 -1155 -360 0 -360 0 0
1155 0 1155 360 0 360 0 0 -1155z"/>
</g>
</svg>
