<?xml version="1.0" standalone="no"?>
<!DOCTYPE svg PUBLIC "-//W3C//DTD SVG 20010904//EN"
 "http://www.w3.org/TR/2001/REC-SVG-20010904/DTD/svg10.dtd">
<svg version="1.0" xmlns="http://www.w3.org/2000/svg"
 width="500.000000pt" height="500.000000pt" viewBox="0 0 500.000000 500.000000"
 preserveAspectRatio="xMidYMid meet">

<g transform="translate(0.000000,500.000000) scale(0.100000,-0.100000)"
fill="#8a3f58" stroke="none">
<path d="M2320 4794 c-215 -20 -461 -77 -646 -149 -778 -304 -1322 -984 -1450
-1815 -25 -161 -25 -503 -1 -655 40 -243 123 -500 227 -703 l48 -94 -150 -538
c-108 -383 -149 -545 -144 -564 8 -34 38 -64 71 -72 17 -4 213 40 585 132
l559 138 98 -47 c211 -99 424 -165 658 -203 134 -22 481 -25 620 -6 505 72
969 299 1318 646 298 296 510 662 612 1059 55 216 69 333 69 577 0 244 -14
361 -69 577 -141 549 -495 1040 -975 1353 -119 77 -363 197 -495 243 -119 41
-283 81 -420 102 -97 15 -425 27 -515 19z m381 -204 c854 -85 1579 -684 1814
-1499 61 -213 79 -348 79 -591 0 -180 -4 -236 -23 -345 -86 -484 -309 -890
-670 -1218 -290 -263 -651 -436 -1056 -508 -187 -33 -503 -33 -689 0 -220 39
-395 96 -589 192 -65 33 -125 59 -132 59 -8 0 -234 -54 -501 -120 -268 -66
-488 -119 -489 -118 -1 2 56 208 127 458 70 250 128 467 128 482 0 15 -29 86
-65 158 -149 296 -219 563 -232 880 -31 785 380 1521 1067 1909 373 210 809
303 1231 261z"/>
<path d="M1570 3683 c-25 -8 -65 -29 -89 -47 -62 -45 -158 -168 -202 -261 -60
-125 -74 -190 -73 -340 1 -150 24 -246 95 -395 93 -196 301 -471 526 -695 289
-288 541 -442 943 -576 180 -60 263 -73 403 -66 129 8 226 37 341 105 195 115
279 261 280 489 1 86 -1 94 -29 133 -27 39 -51 53 -280 161 -137 64 -272 125
-299 133 -111 36 -157 12 -287 -149 -53 -65 -103 -123 -111 -128 -19 -13 -197
72 -312 148 -149 98 -360 319 -441 461 l-18 32 61 71 c34 39 76 99 93 134 52
103 49 124 -65 397 -54 129 -109 256 -122 281 -28 57 -81 105 -131 118 -58 16
-230 13 -283 -6z m332 -423 c54 -129 101 -240 104 -245 6 -15 -44 -90 -108
-160 -122 -133 -118 -189 26 -393 179 -255 403 -440 688 -569 152 -69 187 -74
255 -36 49 27 148 131 219 232 16 22 35 41 42 41 16 0 197 -82 356 -162 l118
-59 -6 -48 c-11 -86 -36 -151 -72 -191 -47 -52 -128 -105 -211 -137 -61 -24
-81 -27 -198 -27 l-130 -1 -153 53 c-281 97 -424 169 -620 317 -299 224 -634
626 -747 894 -39 94 -65 205 -65 281 0 83 31 208 67 269 31 53 129 159 158
172 11 4 56 7 99 6 l79 -2 99 -235z"/>
</g>
</svg>
