<?xml version="1.0" standalone="no"?>
<!DOCTYPE svg PUBLIC "-//W3C//DTD SVG 20010904//EN"
 "http://www.w3.org/TR/2001/REC-SVG-20010904/DTD/svg10.dtd">
<svg version="1.0" xmlns="http://www.w3.org/2000/svg"
 width="696.000000pt" height="696.000000pt" viewBox="0 0 696.000000 696.000000"
 preserveAspectRatio="xMidYMid meet">

<g transform="translate(0.000000,696.000000) scale(0.100000,-0.100000)"
fill="#000000" stroke="none">
<path d="M1005 6075 c-363 -69 -647 -361 -705 -725 -14 -90 -14 -3650 0 -3740
60 -376 364 -677 738 -730 55 -8 778 -10 2492 -8 2317 3 2418 4 2480 22 344
98 596 376 650 716 14 90 14 3650 0 3740 -29 179 -108 336 -239 474 -106 110
-254 197 -411 242 -62 18 -161 19 -2500 21 -1990 1 -2448 -1 -2505 -12z m4885
-581 c41 -12 67 -29 113 -76 51 -50 58 -61 46 -73 -24 -23 -2560 -1795 -2569
-1795 -9 0 -2545 1772 -2569 1795 -22 21 90 129 155 149 43 13 337 15 2410 15
2129 1 2366 -1 2414 -15z m-3777 -1702 c672 -470 1237 -861 1256 -869 56 -24
131 -27 192 -9 43 13 303 190 1289 881 l1235 864 3 -1477 c2 -1690 10 -1546
-87 -1643 -99 -98 161 -89 -2521 -89 -2681 0 -2422 -9 -2521 89 -97 97 -89
-47 -89 1643 0 1067 3 1477 11 1472 6 -3 561 -391 1232 -862z"/>
</g>
</svg>
