<?xml version="1.0" standalone="no"?>
<!DOCTYPE svg PUBLIC "-//W3C//DTD SVG 20010904//EN"
 "http://www.w3.org/TR/2001/REC-SVG-20010904/DTD/svg10.dtd">
<svg version="1.0" xmlns="http://www.w3.org/2000/svg"
 width="1200.000000pt" height="1200.000000pt" viewBox="0 0 1200.000000 1200.000000"
 preserveAspectRatio="xMidYMid meet">

<g transform="translate(0.000000,1200.000000) scale(0.100000,-0.100000)"
fill="#000000" stroke="none">
<path d="M5640 11989 c-1663 -103 -3190 -876 -4253 -2153 -1315 -1578 -1728
-3726 -1095 -5685 699 -2163 2576 -3752 4823 -4085 1376 -204 2790 77 3970
787 1240 747 2176 1922 2620 3287 637 1963 225 4115 -1092 5696 -933 1120
-2228 1858 -3664 2088 -414 67 -900 91 -1309 65z m1955 -2454 c121 -8 235 -15
253 -15 l32 0 0 -579 0 -580 -432 -3 c-407 -4 -438 -6 -512 -26 -199 -55 -299
-151 -353 -337 -15 -52 -17 -124 -21 -547 l-3 -488 621 0 622 0 -6 -37 c-3
-21 -38 -292 -76 -603 -38 -311 -73 -582 -76 -602 l-6 -38 -539 0 -539 0 0
-1620 0 -1620 -640 0 -640 0 0 1620 0 1620 -540 0 -540 0 0 640 0 640 540 0
540 0 0 513 c0 543 6 660 45 853 140 696 647 1147 1378 1224 111 12 621 3 892
-15z"/>
</g>
</svg>
