<?xml version="1.0" standalone="no"?>
<!DOCTYPE svg PUBLIC "-//W3C//DTD SVG 20010904//EN"
 "http://www.w3.org/TR/2001/REC-SVG-20010904/DTD/svg10.dtd">
<svg version="1.0" xmlns="http://www.w3.org/2000/svg"
 width="512.000000pt" height="512.000000pt" viewBox="0 0 512.000000 512.000000"
 preserveAspectRatio="xMidYMid meet">

<g transform="translate(0.000000,512.000000) scale(0.100000,-0.100000)"
fill="#000000" stroke="none">
<path d="M2774 5106 c-92 -40 -111 -175 -33 -240 31 -27 41 -30 209 -65 58
-13 150 -37 205 -56 839 -278 1477 -987 1652 -1835 23 -116 32 -140 58 -168
75 -82 214 -49 245 57 11 39 -6 142 -50 308 -100 373 -300 759 -543 1048 -102
120 -302 317 -412 405 -132 105 -334 232 -496 313 -178 88 -453 184 -634 222
-137 28 -158 29 -201 11z"/>
<path d="M830 4798 c-118 -42 -157 -73 -399 -317 -243 -246 -301 -315 -351
-422 -55 -119 -72 -206 -73 -379 0 -177 16 -289 69 -473 273 -953 1079 -1987
2029 -2605 725 -472 1418 -687 1830 -567 180 53 243 100 543 407 211 217 234
243 271 320 82 165 71 346 -29 494 -48 71 -704 728 -774 775 -150 100 -353
106 -513 14 -26 -15 -141 -120 -254 -232 l-206 -205 -79 40 c-262 132 -607
417 -880 727 -157 178 -317 402 -385 540 l-30 61 194 194 c273 274 311 340
311 525 -1 114 -20 177 -82 270 -46 67 -676 703 -755 761 -85 63 -153 86 -272
91 -85 3 -110 0 -165 -19z m234 -288 c62 -30 709 -681 735 -740 52 -115 31
-152 -254 -435 -219 -217 -233 -233 -244 -280 -20 -85 9 -172 123 -370 130
-226 316 -457 575 -715 265 -265 523 -459 795 -599 229 -118 232 -117 550 198
175 173 240 231 270 241 55 18 128 8 173 -23 68 -47 679 -669 702 -714 31 -62
28 -135 -7 -195 -33 -59 -451 -480 -510 -515 -109 -64 -252 -84 -437 -59 -244
33 -481 113 -798 272 -725 363 -1323 884 -1819 1584 -303 429 -545 954 -603
1311 -19 119 -19 295 0 377 28 120 52 151 299 401 245 247 289 281 370 281 22
0 58 -9 80 -20z"/>
<path d="M2722 4170 c-68 -42 -92 -132 -52 -197 27 -46 58 -62 153 -83 258
-57 472 -170 662 -351 207 -198 326 -407 397 -694 31 -124 47 -153 100 -181
79 -41 187 13 204 102 8 42 -27 206 -68 323 -191 542 -657 958 -1210 1081
-110 25 -145 25 -186 0z"/>
</g>
</svg>
